# xmcd
# 
# Track frame offsets:
#     150
#     12804
#     38916
#     57806
#     74870
#     94045
#     117926
#     131920
#     148259
#     179567
#     199469
#     210801
#     226800
#     261117
# 
# Disc length: 4440
# 
# Revision: 5
# Processed by: cddbd v1.5.2PL0 Copyright (c) Steve Scherf et al.
# Submitted via: fre:ac v1.0.17
# 
DISCID=d211560e
DTITLE=Various Artist - Mujeres
DYEAR=2006
DGENRE=Flamenco
TTITLE0=Estrella Morente - La Joya. Taranta
TTITLE1=Estrella Morente - La Gazpacha, La Repompa, La Tia Concha. Tangos de Grana
TTITLE2=Estrella Morente - Zambra
TTITLE3=Estrella Morente - Chavela. La noche de mi amor
TTITLE4=Estrella Morente - Rocio Jurado. Vuelvo al Sur
TTITLE5=Estrella Morente - Yerma. Nana
TTITLE6=Estrella Morente - Imperio Argentina. Ay Maricruz
TTITLE7=Estrella Morente - Penelope Cruz. Volver
TTITLE8=Estrella Morente - Susana Renaldi. Nostalgias
TTITLE9=Estrella Morente - La Perla de Cadiz. Buleria
TTITLE10=Estrella Morente - Carmen Linares. Taranta
TTITLE11=Estrella Morente - Pastora. Solea
TTITLE12=Estrella Morente - Nina Simone. Ne me quitte pas
TTITLE13=www - Piste de données
EXTD=YEAR: 2005
EXTT0=
EXTT1=
EXTT2=
EXTT3=
EXTT4=
EXTT5=
EXTT6=
EXTT7=
EXTT8=
EXTT9=
EXTT10=
EXTT11=
EXTT12=
EXTT13=
PLAYORDER=
